<svg xmlns="http://www.w3.org/2000/svg" xmlns:xlink="http://www.w3.org/1999/xlink"><symbol viewBox="0 0 512 512" id="icon-arrow" xmlns="http://www.w3.org/2000/svg"><path d="M160 128.4L192.3 96 352 256 192.3 416 160 383.6 287.3 256z"/></symbol><symbol viewBox="0 0 31 8" id="icon-arrow2" xmlns="http://www.w3.org/2000/svg"><defs><style>.cls-arrow2-1{fill:#fff;fill-rule:evenodd}</style></defs><path class="cls-arrow2-1" d="M.656 3.34h28.219a.66.66 0 0 1 0 1.32H.656a.66.66 0 0 1 0-1.32zm29.027.22l-3.624 3.4a.5.5 0 0 0 0 .84.917.917 0 0 0 1.091 0l3.624-3.39a.512.512 0 0 0 0-.85.949.949 0 0 0-1.091 0zm1.091 0L27.15.17a.949.949 0 0 0-1.091 0 .513.513 0 0 0 0 .85l3.624 3.39a.917.917 0 0 0 1.091 0 .512.512 0 0 0 0-.85z"/></symbol><symbol viewBox="0 0 177.5 284.336" id="icon-arrow3" xmlns="http://www.w3.org/2000/svg"><path d="M13.088 270.663C5.89 263.143 0 256.675 0 256.29c0-.385 26.775-26.226 59.5-57.425 32.725-31.199 59.5-57.027 59.5-57.396 0-.369-26.332-25.778-58.515-56.464-40.4-38.522-58.278-56.197-57.75-57.099.42-.718 6.516-7.29 13.544-14.606L29.06 0l3.22 3.07L106.5 73.777c39.05 37.2 71 68.038 71 68.529-29.386 27.506-62.77 59.153-89.489 84.544-33.175 31.617-60.66 57.486-61.077 57.486-.417 0-6.648-6.153-13.846-13.673z"/></symbol><symbol viewBox="0 0 16 17" id="icon-attach" xmlns="http://www.w3.org/2000/svg"><defs><style>.cls-attach-1{fill:#185596;fill-rule:evenodd}</style></defs><path class="cls-attach-1" d="M15.978 3.86a3.856 3.856 0 0 0-1.477-2.62l-.483-.37a4.159 4.159 0 0 0-5.693.57L.901 10.28a3.761 3.761 0 0 0-.879 2.86 3.851 3.851 0 0 0 1.479 2.62l.483.37a4.143 4.143 0 0 0 2.542.87 6.1 6.1 0 0 0 .428-.02 4.062 4.062 0 0 0 2.707-1.41l5.009-5.95a2.414 2.414 0 0 0-.381-3.48l-.253-.2a2.607 2.607 0 0 0-1.615-.55 2.578 2.578 0 0 0-2 .92l-5 5.94a.891.891 0 0 0 .14 1.28.966.966 0 0 0 .592.2.937.937 0 0 0 .733-.34l5-5.94a.686.686 0 0 1 .535-.25.677.677 0 0 1 .431.15l.253.2a.63.63 0 0 1 .25.44.616.616 0 0 1-.149.48l-4.993 5.95a2.19 2.19 0 0 1-1.684.77 2.217 2.217 0 0 1-1.359-.47l-.483-.37a2.058 2.058 0 0 1-.791-1.4 2.009 2.009 0 0 1 .47-1.53L9.79 2.58a2.192 2.192 0 0 1 1.685-.77 2.217 2.217 0 0 1 1.359.47l.483.37a2.034 2.034 0 0 1 .321 2.93.888.888 0 0 0 .139 1.28.968.968 0 0 0 .592.2.937.937 0 0 0 .733-.34 3.768 3.768 0 0 0 .876-2.86z"/></symbol><symbol id="icon-check" viewBox="0 0 9.927 7.419" xmlns="http://www.w3.org/2000/svg"><defs id="defs4487"><style id="style4485">.cls-check-1{fill:none;stroke:#185596;stroke-width:2px;fill-rule:evenodd}</style></defs><path class="cls-check-1" d="M.695 2.739l3.95 3.95" id="path4489" fill="none" fill-rule="evenodd" stroke="#185596" stroke-width="2"/><path d="M9.19.734l-5.952 5.95C5.276 4.632 7.206 2.718 9.19.734z" id="path4491" fill="none" fill-rule="evenodd" stroke="#185596" stroke-width="2"/></symbol><symbol viewBox="0 0 257 250" id="icon-close" xmlns="http://www.w3.org/2000/svg"><path d="M186.205 206.132c-22.55-23.327-44.865-46.271-49.589-50.988l-8.589-8.577-49.91 47.06c-27.452 25.881-50.259 46.947-50.682 46.811-.424-.136-6.636-6.507-13.804-14.159-12.43-13.27-12.95-13.99-11.23-15.604 30.05-28.194 92.674-87.077 95.098-89.414l3.295-3.178-43.548-44.922-43.548-44.922 13.743-13.77C35.001 6.894 41.455.811 41.786.951c.33.14 20.017 20.278 43.747 44.753 23.731 24.475 43.517 44.5 43.968 44.5.452 0 21.49-19.487 46.752-43.304l45.93-43.305 13.212 13.805c7.267 7.592 13.198 14.254 13.18 14.804-.018.55-20.446 20.125-45.396 43.5s-45.276 43.04-45.169 43.702c.108.66 19.117 20.685 42.245 44.5 23.127 23.814 45.177 46.625 49 50.692l6.95 7.394-13.99 13.356c-7.694 7.346-14.219 13.32-14.5 13.275-.28-.045-18.96-19.166-41.51-42.492z"/></symbol><symbol viewBox="0 0 321.503 322.484" id="icon-cross" xmlns="http://www.w3.org/2000/svg"><path d="M226.493 255.984l-66.495-66.5-66.01 66.005-66.011 66.005-13.984-14.01-13.984-14.01 65.99-65.995 65.988-65.995-65.993-66L0 29.486l14-14 14-14 65.994 66 65.993 65.999 66.748-66.742L293.482 0l14.01 13.984 14.011 13.984-66.752 66.758-66.753 66.758 66.753 66.758L321.503 295l-13.768 13.742c-7.572 7.558-13.989 13.742-14.258 13.742-.27 0-30.412-29.925-66.984-66.5z"/></symbol><symbol viewBox="0 0 439.832 439.832" id="icon-gears" xmlns="http://www.w3.org/2000/svg"><path d="M225.36 259.98h-22.48a89.67 89.67 0 0 0-5.2-12.48l16-16a8 8 0 0 0 0-11.28l-28.8-28.8a8 8 0 0 0-11.28 0l-16 16a88.767 88.767 0 0 0-12.24-4.96v-22.48a8 8 0 0 0-8-8H96.4a8 8 0 0 0-8 8v23.36a89.603 89.603 0 0 0-11.76 4.96L60 191.741a8 8 0 0 0-11.28 0L20 220.46a8 8 0 0 0 0 11.28l16.8 16.8a89.68 89.68 0 0 0-4.8 11.44H8a8 8 0 0 0-8 8v40.72a8 8 0 0 0 8 8h24a89.286 89.286 0 0 0 4.72 11.6L20 345.26a8 8 0 0 0 0 11.28l28.8 28.8a8 8 0 0 0 11.28 0l16.56-16.56a90.127 90.127 0 0 0 11.76 4.96v23.36a8 8 0 0 0 8 8h40.72a8 8 0 0 0 8-8v-22.88a89.195 89.195 0 0 0 12.24-4.96l16 16a8 8 0 0 0 11.28 0l28.8-28.8a8 8 0 0 0 0-11.28l-16-16a88.849 88.849 0 0 0 5.2-12.48h22.48a8 8 0 0 0 8-8v-40.72a8 8 0 0 0-7.76-8zm-8 40.72h-20.48a8 8 0 0 0-8 6 73.69 73.69 0 0 1-8 19.68 8 8 0 0 0 1.2 9.76l14.48 14.48-17.52 17.44-14.64-14.64a8 8 0 0 0-9.68-1.28 73.827 73.827 0 0 1-19.6 8 8 8 0 0 0-6.08 8v20.96H104.4v-21.28a8 8 0 0 0-6-8 73.27 73.27 0 0 1-19.12-8 8 8 0 0 0-9.76 1.2l-15.2 15.2-17.44-17.28L52 335.58a8 8 0 0 0 1.28-9.68 73.717 73.717 0 0 1-8-18.96 8 8 0 0 0-8-6H16.16v-24.96H38a8 8 0 0 0 8-6 74.092 74.092 0 0 1 8-18.96 8 8 0 0 0-2-9.52l-15.12-15.36L54.4 208.7l15.2 15.2a8 8 0 0 0 9.76 1.2 73.921 73.921 0 0 1 19.12-8 8 8 0 0 0 5.92-8v-21.12h24.72v20.96a8 8 0 0 0 6.08 8 73.76 73.76 0 0 1 19.6 8 8 8 0 0 0 9.68-1.28l14.64-14.72 17.52 17.44-14.56 14.56a8 8 0 0 0-1.2 9.76 73.388 73.388 0 0 1 8 19.68 8 8 0 0 0 8 6h20.48v24.32z" fill="#FFF"/><path d="M116.8 243.981c-24.742 0-44.8 20.058-44.8 44.8s20.058 44.8 44.8 44.8c24.742 0 44.8-20.058 44.8-44.8-.044-24.725-20.076-44.756-44.8-44.8zm0 73.359v.24c-15.906 0-28.8-12.894-28.8-28.8s12.894-28.8 28.8-28.8 28.8 12.894 28.8 28.8c-.132 15.812-12.987 28.561-28.8 28.56zM439.683 148.359a7.94 7.94 0 0 0-.083-.378l-8.64-39.44a8 8 0 0 0-9.52-6.08l-21.92 4.8a89.066 89.066 0 0 0-8-11.04L404 77.181a8 8 0 0 0-2.4-11.04l-34.4-22.16a8 8 0 0 0-11.04 2.4l-12.32 19.2a88.485 88.485 0 0 0-13.04-2.24l-4.88-22.4a7.999 7.999 0 0 0-9.92-5.92l-40 8.72a8 8 0 0 0-6.08 9.52l5.6 22.72a90.459 90.459 0 0 0-10.48 7.36L245.28 70.7a8 8 0 0 0-11.04 2.4L212 107.421a8 8 0 0 0 2.4 11.04l20 12.8a89.587 89.587 0 0 0-2.16 12.32l-23.28 5.12a8 8 0 0 0-6.08 9.52l8.72 40a8 8 0 0 0 9.52 6.08l23.28-5.04a90.392 90.392 0 0 0 7.6 10.08l-12.8 20a8 8 0 0 0 2.4 11.04l34.24 22a8 8 0 0 0 11.04-2.4l12.64-19.76a89.09 89.09 0 0 0 12.56 2.32l4.96 22.8a8 8 0 0 0 8 6.32h1.68l40-8.64a8 8 0 0 0 5.28-9.68l-4.88-22.4a90.855 90.855 0 0 0 10.88-7.44l19.44 12.48a8 8 0 0 0 11.04-2.4l22-34.32a8 8 0 0 0-2.48-11.28l-18.96-12.16a89.035 89.035 0 0 0 2.4-13.28l21.92-4.8a8 8 0 0 0 6.323-9.382zm-37.363.182a8 8 0 0 0-6.32 7.44 73.418 73.418 0 0 1-3.84 21.04 8 8 0 0 0 3.28 9.28l17.28 11.04-13.36 20.8-17.44-11.2a8 8 0 0 0-9.76.88 73.692 73.692 0 0 1-17.44 11.92 8 8 0 0 0-4.32 8.88l4.48 20.48-24 5.28-4.56-20.8a8 8 0 0 0-7.44-6.32 73.392 73.392 0 0 1-20.4-3.84 7.98 7.98 0 0 0-2.56-.4 8.002 8.002 0 0 0-6.72 3.68l-11.6 18.08-20.8-13.36 11.2-18.4a8 8 0 0 0-.88-9.76 73.91 73.91 0 0 1-11.68-16.88 8 8 0 0 0-8.88-4.24l-21.28 4.64-5.28-24 21.28-4.64a8 8 0 0 0 6.32-7.52 74.211 74.211 0 0 1 4.4-20.32 8 8 0 0 0-3.28-9.2l-18.24-11.68 13.36-20.8 17.6 11.36a8 8 0 0 0 9.84-.88 73.674 73.674 0 0 1 16.96-12 7.999 7.999 0 0 0 4.16-8.8l-4.56-20.8 24-5.28 4.48 20.48a8 8 0 0 0 8 6.32 73.126 73.126 0 0 1 20.8 3.6 8 8 0 0 0 9.2-3.28l11.2-17.44 20.8 13.36-11.12 17.28a8 8 0 0 0 .96 9.84 73.101 73.101 0 0 1 11.84 17.52 8 8 0 0 0 8.88 4.24l20-4.32 5.28 24-19.84 4.72z" fill="#FFF"/><path d="M365.2 143.741c-4.422-20.62-22.671-35.333-43.76-35.28-24.742-.009-44.807 20.041-44.817 44.783s20.041 44.807 44.783 44.817c24.742.009 44.807-20.041 44.817-44.783a44.833 44.833 0 0 0-1.023-9.537zm-37.76 37.68h.08c-15.505 3.142-30.702-6.599-34.32-22-3.37-15.547 6.466-30.891 22-34.32 2.025-.43 4.09-.644 6.16-.64 15.906-.023 28.819 12.852 28.842 28.758.02 13.594-9.469 25.351-22.762 28.202z" fill="#FFF"/></symbol><symbol viewBox="0 0 999 980" id="icon-goal1" xmlns="http://www.w3.org/2000/svg"><path d="M586.318 960.71v-20h142V530.603L618.185 321.407c-60.573-115.059-110.188-209.275-110.257-209.37-.068-.096-9.345 3.763-20.617 8.576a25283.839 25283.839 0 0 1-41.243 17.556l-20.75 8.806V340.71h-40V.71H425.3l.26 51.286.258 51.286 49.983-21.22c27.491-11.67 50.171-21.031 50.4-20.802.23.229 19.192 36.086 42.14 79.683l41.722 79.267 48.877.275 48.878.275 80.75 160.045 80.75 160.046V900.71h-40l-.027-175.25-.027-175.25-72.927-144.5-72.928-144.5-26.08-.267-26.08-.266 3.94 7.266c2.166 3.997 33.007 62.51 68.534 130.03l64.596 122.761V940.71h161v40h-343zm337.44-66.06l-13.92-13.947 29.98-29.993 29.981-29.994 14.258 14.232 14.258 14.233-10.749 10.835c-5.911 5.96-19.554 19.329-30.317 29.709l-19.57 18.873zm-438.44-13.94v-20h101v40h-101zm125.82-49.318c-38.325-32.55-69.708-59.632-69.739-60.182-.031-.55 5.604-7.646 12.522-15.77l12.58-14.77 5.658 4.865c3.113 2.675 34.684 29.503 70.16 59.617 35.474 30.115 64.613 55.05 64.752 55.414.319.834-24.604 30.168-25.553 30.076-.385-.037-32.056-26.7-70.38-59.25zm37.99-72.432l-29.676-29.75 13.71-14.362 13.711-14.361 30.473 30.034 30.472 30.035-13.986 14.077c-7.693 7.742-14.22 14.077-14.507 14.077-.286 0-13.874-13.388-30.196-29.75zm-396.31 19.11c-20.927-3.312-39.491-11.813-52.706-24.134-14.233-13.273-47.812-58.783-91.288-123.726-39.261-58.647-77.591-120.543-88.554-143C-.395 444.881-4.992 398.299 6.877 351.479c4.842-19.102 13.952-40.986 22.66-54.433l4.426-6.836 135.863-72.445c74.724-39.845 136.01-72.02 136.192-71.5.182.52 4.323 8.37 9.203 17.445 4.88 9.075 8.585 16.796 8.234 17.157-.35.361-59.362 31.964-131.137 70.229l-130.5 69.571-3.727 7.272c-14.436 28.166-20.46 62.795-16.326 93.847 3.592 26.98 9.895 42.247 33.998 82.355 53.539 89.09 137.023 209.6 154.358 222.821 11.884 9.062 24.153 12.194 44.697 11.409 15.966-.61 26.237-2.596 44.99-8.697 44.134-14.358 85.896-38.424 181.01-104.307 36.965-25.605 125.79-89.107 143.142-102.334l3.141-2.395 11.157 15.08c6.136 8.293 11.378 15.656 11.648 16.36.664 1.73-73.92 55.895-144.588 105.003-32.566 22.63-84.761 57.092-104 68.666-30.861 18.565-69.005 36.201-95 43.923-20.745 6.162-32.875 8.13-52.5 8.52-9.9.195-19.35.142-21-.12zm132.5-367.36v-30h40v60h-40z" fill="#175495"/></symbol><symbol viewBox="0 0 1000 1000" id="icon-goal2" xmlns="http://www.w3.org/2000/svg"><path d="M657.06 1000.016c-83.832-5.425-164.15-44.408-218.666-106.13-12.642-14.314-377.68-457.599-385.477-468.106-12.841-17.305-27.24-44.266-35.278-66.061C2.188 317.829-2.398 268.28 5.103 224.268c4.565-26.788 11.662-48.61 24.004-73.81 20.671-42.204 52.378-78.156 92.642-105.045 13.8-9.216 39.204-22.137 54.651-27.798 22.006-8.064 48.935-13.724 73.764-15.504C269.346.736 805.764.7 822.559 2.071c76.798 6.277 142.509 57.132 167.51 129.64 5.166 14.98 8.747 32.632 10.057 49.573.678 8.756.917 99.581.702 266.775-.302 235.382-.452 254.465-2.09 267-7.083 54.153-24.48 100.732-53.783 144a321.325 321.325 0 0 1-85.896 85.896c-48.656 32.952-102.499 51.315-161.5 55.077-17.432 1.112-23.116 1.11-40.5-.016zm44-31.95c5.224-.527 13.204-1.49 17.732-2.141l8.233-1.183.267-24.497.267-24.498 10.5-2.764c22.35-5.882 45.84-15.687 65.333-27.27 4.308-2.56 8.128-4.654 8.49-4.654.36 0 8.312 7.646 17.668 16.991l17.012 16.99 9.498-7.33c18.378-14.18 37.53-33.328 51.643-51.632l7.338-9.517-16.99-17.011c-9.346-9.356-16.992-17.307-16.992-17.668 0-.362 2.095-4.182 4.655-8.49 11.582-19.492 21.387-42.982 27.27-65.333l2.763-10.5 24.555-.267 24.556-.267 1.125-8.233c2.5-18.276 3.042-28.57 3.059-57.966l.017-30.734-26.687-.266-26.687-.267-.853-3.5c-6.513-26.717-14.98-47.801-29.046-72.323l-5.06-8.824 18.664-18.684 18.665-18.684-34.496-34.485-34.496-34.484-18.752 18.707-18.752 18.708-10.5-6.087c-22.23-12.887-39.989-19.965-69.75-27.802l-4.25-1.119V388.06h-97v52.923l-4.25 1.092c-28.483 7.318-48.4 15.26-70.148 27.972l-10.79 6.307-18.91-18.891-18.91-18.891-34.24 34.24-34.24 34.24 18.89 18.91 18.891 18.911-6.306 10.79c-12.712 21.747-20.654 41.665-27.972 70.147l-1.092 4.25h-52.923v97h52.923l1.119 4.25c7.815 29.679 14.597 46.682 27.82 69.75l6.019 10.5-17.44 17.51c-9.593 9.631-17.441 17.871-17.441 18.312 0 1.05 18.69 23.24 27 32.056 7.455 7.91 23.306 21.795 34.48 30.205l7.655 5.761 17.36-17.338 17.359-17.339 8.823 5.061c24.521 14.064 45.61 22.533 72.323 29.045l3.5.853.267 24.545.267 24.544 8.733 1.238c21.495 3.046 44.786 3.814 62.233 2.054zm-44.5-146.416c-48.071-8.054-86.997-36.895-108.053-80.06-11.278-23.118-15.003-40.976-14.153-67.862.579-18.316 1.901-26.309 6.78-40.985 7.292-21.932 17.868-38.756 35.36-56.248 21.046-21.045 43.9-33.626 72.565-39.945 11.702-2.58 39.433-3.14 51.934-1.05 21.144 3.535 41.363 11.523 58.741 23.206 14.648 9.847 31.474 27.249 41.523 42.944 8.027 12.536 15.864 32.403 19.49 49.41 2.566 12.036 2.566 42.962 0 55-6.302 29.555-19.307 53.703-40.145 74.542-20.285 20.284-42.104 32.386-70.543 39.124-13.094 3.103-40.568 4.091-53.5 1.924zm43.849-32.222c33.332-6.3 63.52-29.324 79.156-60.369 8.22-16.32 11.84-31.943 11.815-51-.03-23.736-6.642-44.618-20.449-64.591-6.087-8.805-21.016-23.414-29.872-29.232-45.353-29.795-104.233-23.857-142.457 14.366-38.258 38.259-44.189 97.062-14.366 142.457 5.808 8.841 20.43 23.79 29.152 29.804 17.001 11.722 34.876 18.223 56.671 20.61 5.764.632 21.965-.46 30.35-2.045zm-37.35-46.369v-16h31v32h-31zm-65-64.5v-15.5h32v31h-32zm65 0v-15.5h31v31h-31zm64 0v-15.5h32v31h-32zm-64-64.5v-16h31v32h-31zm-65 334.469c0-5.972-.375-8.637-1.25-8.882-6.858-1.923-24.613-8.932-34.396-13.58l-12.146-5.77-6.245 6.3-6.245 6.302 9.083 4.561c14.574 7.32 45.829 19.581 49.95 19.596.902 0 1.25-2.366 1.25-8.527zm172.554 5.152c18.309-6.222 47.446-19.333 47.446-21.35 0-.392-2.544-3.284-5.654-6.427l-5.654-5.713-6.596 3.319c-9.167 4.613-17.825 8.237-30.096 12.596l-10.5 3.73-.289 8.612c-.159 4.737.09 8.612.554 8.612.463 0 5.318-1.52 10.789-3.38zM428.786 814.834c4-3.973 7.273-7.808 7.273-8.522 0-.713-1.798-4.873-3.996-9.245-4.146-8.247-10.472-23.655-13.448-32.758l-1.716-5.25h-48.985l2.323 2.909c15.214 19.053 49.548 60.058 50.299 60.072.537.01 4.25-3.232 8.25-7.206zm509.783-7.794c3.04-6.06 6.922-14.498 8.629-18.75 3.398-8.47 9.861-27.125 9.861-28.466 0-.463-3.877-.713-8.617-.554l-8.617.29-3.246 9.568c-3.308 9.753-9.715 24.829-13.995 32.931l-2.378 4.5 5.646 5.75c3.104 3.163 5.993 5.75 6.418 5.75.425 0 3.26-4.958 6.299-11.019zM386.44 598.06h30.369l3.189-9.25c1.754-5.088 6.148-15.937 9.764-24.109l6.576-14.858-21.14-21.139-21.138-21.138 56.744-56.751 56.744-56.75 21.151 21.134 21.152 21.135 14.854-6.573c8.17-3.616 19.017-8.009 24.104-9.763l9.25-3.19V356.06h161v60.84l5.25 1.716c9.103 2.976 24.511 9.302 32.758 13.448 4.372 2.198 8.517 3.996 9.212 3.996.695 0 10.72-9.449 22.278-20.997l21.014-20.997 56.747 56.753 56.747 56.753-21.378 21.361-21.379 21.361 5.776 12.133c3.176 6.673 7.694 17.42 10.038 23.883l4.263 11.75h28.674v-388H935.24l-1.208 7.25c-2.7 16.21-10.856 36.051-20.526 49.93l-4.403 6.32 11.717 11.755 11.718 11.755-11.234 11.235-11.235 11.234-11.755-11.718-11.755-11.717-6.32 4.403c-13.755 9.584-33.704 17.823-49.93 20.623l-7.25 1.25v32.68h-30.95l-.275-16.234-.275-16.235-8.5-1.745c-16.88-3.465-34.581-10.89-48-20.131l-6.5-4.477-11.755 11.65-11.755 11.651-11.234-11.234-11.234-11.235 11.65-11.755 11.65-11.755-4.476-6.5c-9.463-13.739-17.896-34.259-20.445-49.75l-1.194-7.25H647.06v-31h32.68l1.25-7.25c2.8-16.225 11.04-36.174 20.624-49.93l4.403-6.32-11.718-11.755-11.717-11.755 11.234-11.234 11.234-11.234 11.755 11.717 11.755 11.718 6.32-4.403c13.756-9.584 33.705-17.824 49.93-20.623l7.25-1.251v-33.68H397.568l44.489 44.498 44.489 44.497-20.243 20.262c-11.134 11.144-20.244 20.72-20.244 21.28 0 .561 1.963 5.507 4.362 10.992 2.399 5.484 5.135 12.334 6.08 15.221l1.72 5.25h58.839v128h-58.84l-1.719 5.25c-.945 2.888-3.681 9.738-6.08 15.222s-4.362 10.43-4.362 10.991c0 .56 9.11 10.138 20.245 21.282l20.245 20.263-45.241 45.241-45.241 45.241-20.754-20.623-20.754-20.623-7 3.34c-3.85 1.837-10.937 4.77-15.75 6.515l-8.75 3.175v58.726h-128v-58.732l-7.75-2.816c-4.262-1.549-11.037-4.309-15.055-6.134-4.018-1.825-7.849-3.318-8.513-3.318-.664 0-7.682 6.486-15.595 14.413l-14.387 14.413 13.9 16.893c7.645 9.291 57.55 69.898 110.9 134.681l97 117.789.257-73.094.256-73.095zm-94.38-138.473v-25.472l5.75-1.573c22.002-6.02 38.515-12.797 55.787-22.897l6.039-3.53 17.952 17.973 17.953 17.974L418.8 418.82l23.258-23.243-18-18.02-18.002-18.022 4.14-6.988c9.68-16.343 16.137-32.112 22.412-54.738l1.594-5.75H485.06v-66h-50.944l-1.58-5.75c-6.285-22.867-10.746-34.074-20.06-50.397l-6.448-11.3 18.015-18.036 18.016-18.035L419.06 99.56l-22.998-22.982-17.762 17.74c-9.768 9.758-18.026 17.741-18.35 17.741-.323 0-5.269-2.704-10.99-6.01-13.655-7.891-28.759-14.192-44.023-18.363l-12.378-3.383-.267-25.755-.267-25.754-23.733.556c-22.633.53-35.08 1.69-39.964 3.721-2.206.918-2.235 1.19-2.5 24.088l-.269 23.159-11.5 3.27c-20.307 5.777-29.919 9.776-45.412 18.894-5.212 3.067-9.834 5.577-10.27 5.577-.438 0-7.827-7.021-16.421-15.603L126.33 80.853l-6.885 5.74c-10.313 8.598-22.707 20.896-30.997 30.754-4.064 4.834-7.389 9.104-7.389 9.489 0 .385 7.013 7.723 15.584 16.307l15.583 15.606-6.574 11.405c-8.042 13.953-13.709 27.577-18.055 43.405l-3.294 12-23.546.268-23.547.268-.556 2.732c-2.84 13.944-4.456 45.462-2.91 56.732l.822 6 24.869.5 24.868.5 3.383 12.378c4.171 15.263 10.471 30.367 18.363 44.024 3.306 5.72 6.01 10.666 6.01 10.99 0 .325-8.782 9.381-19.517 20.126l-19.517 19.535 4.69 6.474c5.95 8.21 35.406 43.973 36.219 43.973.335 0 10.543-9.926 22.685-22.059l22.075-22.059 7.713 4.56c16.66 9.85 31.056 15.92 48.611 20.497l10.541 2.749.255 24.406c.14 13.424.463 24.969.719 25.656.358.965 7.884 1.25 32.995 1.25h32.531zm-45.095-88.6c-48.909-5.19-89.063-42.434-98.408-91.276-1.936-10.12-1.936-31.184 0-41.303 8.752-45.744 44.139-81.124 89.892-89.876 10.486-2.006 30.732-2.014 41.1-.017 23.31 4.491 43.066 15.006 59.65 31.747 43.349 43.758 43.068 114.618-.625 158.312-18.453 18.452-42.16 29.681-68.515 32.452-10.593 1.114-12.262 1.11-23.094-.039zm32.594-33.45c8.918-2.381 23.16-9.667 30.297-15.499 8.975-7.333 16.677-17.078 21.72-27.479 6.511-13.43 7.889-19.629 7.889-35.5 0-15.956-1.397-22.199-7.952-35.549-19.725-40.171-67.59-56.542-107.954-36.924-24.55 11.932-41.255 35.642-44.778 63.553-5.21 41.271 24.792 81.422 66.4 88.861 7.387 1.321 27.095.483 34.378-1.463zM65.15 362.47l7.635-7.59-4.234-9.66c-2.329-5.313-5.253-12.472-6.497-15.91l-2.263-6.25h-9.866c-7.56 0-9.866.312-9.866 1.335 0 4.657 15.107 45.665 16.822 45.665.349 0 4.07-3.415 8.269-7.59zm752.936-71.443c43.1-5.254 76.41-36.38 85.048-79.467.661-3.3 1.203-10.95 1.203-17 0-6.05-.542-13.7-1.203-17-8.125-40.53-38.155-70.564-78.539-78.55-7.673-1.518-26.398-1.518-34.071 0-37.337 7.383-66.117 33.64-76.53 69.821-5.552 19.289-4.353 42.039 3.223 61.137 16.167 40.758 58.282 66.251 100.869 61.06zm-18.527-49.073c-14.074-2.024-28.404-12.776-34.985-26.25-8.986-18.402-5.836-39.067 8.2-53.785 9.902-10.383 20.543-14.959 34.785-14.959 17.454 0 32.972 8.967 41.735 24.115 7.937 13.721 7.719 34.154-.515 48.2-6.503 11.093-20.653 20.595-33.86 22.738-7.071 1.148-6.962 1.148-15.36-.06zm15.54-33.196c4.939-2.612 8.96-8.984 8.96-14.198 0-8.753-9.125-17.125-17.668-16.21-8.486.909-15.25 8.089-15.31 16.248-.038 5.344 3.961 11.701 8.94 14.212 5.667 2.858 9.601 2.844 15.078-.052zm-752.04-22.35c1.796-4.758 4.753-11.846 6.57-15.75l3.306-7.098-4.65-4.75c-2.558-2.612-4.932-4.75-5.277-4.75-1.415 0-17.949 37.37-17.949 40.569 0 .237 3.316.431 7.368.431h7.367zm905-9.94c0-4.847-4.1-22.87-7.576-33.3-5.37-16.115-16.51-36.84-25.945-48.265l-2.194-2.658-11.62 11.658-11.621 11.657 4.562 6.5c9.324 13.285 17.502 33.47 20.472 50.528l1.128 6.472h32.794zM908.164 68.684c-2.485-2.993-19.213-13.77-28.91-18.625-15.343-7.681-43.213-16-53.602-16h-2.593v32.794l6.75 1.148c16.396 2.788 37.093 11.213 50.25 20.456l6.5 4.566 11.428-11.416c9.654-9.643 11.234-11.65 10.177-12.923zm-723.855-4.752l10.75-4.266v-7.371c0-8.574 1.489-8.355-14.28-2.105-8.408 3.333-25.317 11.265-26.66 12.508-.241.223 1.732 2.61 4.386 5.305l4.824 4.898 5.115-2.35c2.814-1.294 9.953-4.272 15.865-6.619zM374.56 53.06l19.982-20H323.06v26.608l10.75 4.192c8.524 3.325 20.706 8.677 20.759 9.121.005.044 9-8.92 19.99-19.92z"/></symbol><symbol viewBox="0 0 1000 1000" id="icon-goal3" xmlns="http://www.w3.org/2000/svg"><path d="M412.763 974.206l-16.306-24.5H285.253l-36.745-36.755-36.745-36.755v-39.49H85.93l-2.055-8.75c-1.13-4.812-9.042-37.025-17.583-71.584l-15.529-62.834v-151.08l-8.905-9.314C.408 489.786-9.623 425.123 16.738 371.206c14.363-29.374 37.25-52.352 66.628-66.892 4.893-2.422 63.917-28.524 131.163-58.005l122.265-53.603h35.969v-31.95l16.25-.275 16.25-.275.256-80.75.256-80.75h30.976l.256 80.75.256 80.75h129l.256-80.75.256-80.75h30.976l.256 80.75.256 80.75 16.25.275 16.25.275v31.95h35.969l122.265 53.603c67.247 29.48 126.27 55.583 131.163 58.005 29.378 14.54 52.265 37.518 66.627 66.892 26.362 53.917 16.332 118.58-25.12 161.938l-8.904 9.315v153.258l-17.625 70.494-17.625 70.495h-125.75v38.006l-19.662 29.497-19.661 29.497h-63.191l-16.241 32.5-16.24 32.5h-227.7zm240.5-39.5l15.975-32h65.509l12.508-18.746 12.508-18.746V664.601l-36.25-50.898-36.25-50.898-55.372-.05-55.373-.049-40.003-32-40.004-32H394.012l-74.874 59.9-74.875 59.901-.254 122.34-.254 122.338 27.747 27.76 27.748 27.761h114.493l16.02 24 16.02 24h191.505zm-119.153-2.985c-21.352-5.597-38.13-21.415-45.014-42.436-2.238-6.837-2.645-9.846-2.645-19.579 0-9.777.403-12.73 2.688-19.714 9.1-27.805 35.18-45.606 64.497-44.02 17 .919 30.073 6.797 42.185 18.967 11.984 12.04 18.143 27.239 18.143 44.767 0 15.405-3.895 26.743-13.64 39.709-14.525 19.32-42.128 28.62-66.214 22.306zm29.35-32.546c6.435-2.86 13.08-9.378 16.276-15.969 3.39-6.99 3.472-19.848.17-26.636-3.586-7.37-8.62-12.48-15.745-15.988-5.551-2.733-7.611-3.209-13.898-3.209-27.665 0-42.753 32.86-24.572 53.514 9.547 10.846 24.585 14.146 37.769 8.288zm-249.434-14.983c-22.18-4.818-37.263-23.893-37.263-47.123 0-19.142 9.984-34.704 27.643-43.091 6.816-3.237 8.653-3.656 17.73-4.05 8.538-.37 11.147-.095 16.627 1.748 17.636 5.93 30.126 20.54 33.014 38.615 3.196 20.008-7.965 41.278-26.192 49.915-11.575 5.485-19.849 6.53-31.56 3.986zm17.392-32.126c14.08-6.682 11.155-27.543-4.321-30.813-7.713-1.63-17.415 5.037-18.907 12.99-2.456 13.093 11.167 23.546 23.228 17.823zm364.345-30.86v-15.5h31v31h-31zm-258-64.5v-16h31v32h-31zm200.5-17.002c-32.97-4.596-57.129-33.907-55.214-66.989.949-16.387 6.853-29.816 18.214-41.428 7.34-7.502 15.471-12.559 26.01-16.176 6.745-2.315 9.705-2.751 18.99-2.801 18.615-.1 33.22 5.869 46.015 18.805 12.357 12.493 18.441 27.36 18.47 45.131.056 34.044-25.477 61.203-59.985 63.805-3.575.27-9.2.114-12.5-.347zm18.274-32.523c2.826-.84 7.04-2.977 9.364-4.75 16.24-12.39 18.043-34.704 3.945-48.802-15.716-15.716-40.998-12.194-51.542 7.18-2.273 4.175-2.992 6.971-3.34 12.986-.54 9.344 1.218 15.332 6.553 22.312 7.989 10.452 22.094 14.912 35.02 11.074zm-379.774-14.975v-15.5h31v31h-31zm132-34.25c-29.137-7.904-43.817-39.764-30.871-66.996 7.698-16.191 25.088-27.254 42.842-27.254 19.01 0 35.58 10.477 43.8 27.692 3.668 7.681 3.729 8.003 3.714 19.808-.017 14.184-1.795 19.852-9.335 29.76-11.39 14.97-31.939 21.93-50.15 16.99zm21.102-32.508c3.743-2.487 7.898-9.717 7.898-13.742 0-3.561-3.97-10.997-7.077-13.258-11.838-8.611-28.24 2.098-25.508 16.657 1.972 10.513 15.747 16.284 24.687 10.343zm71.898-29.742v-16h32v32h-32zm-290 193.5v-16.5h-32v-32h32v-33h-32v-31h32v-33h-32v-32h32v-47.868l-9.297 3.885c-32.035 13.385-69.503 14.657-101.668 3.45-5.755-2.004-12.15-4.505-14.21-5.556-2.06-1.05-3.988-1.91-4.285-1.91-.297 0-.54 28.127-.54 62.506v62.506l14.625 58.494 14.625 58.493h100.75zm695.375-41.993l14.625-58.494v-62.506c0-34.379-.243-62.507-.54-62.507-.297 0-2.225.86-4.285 1.911-2.06 1.051-8.455 3.552-14.21 5.557-32.165 11.206-69.633 9.934-101.668-3.451l-9.297-3.885v47.868h32v32h-32v33h32v31h-32v33h32v32h-32v33h100.75zm-154.825-212.88c-19.01-20.088-31.86-44.595-37.72-71.938-1.734-8.087-2.2-13.696-2.257-27.189-.04-9.35.272-18.232.693-19.738.764-2.731.694-2.774-26.243-16.25l-27.009-13.512h-29.014v32h-258v-32h-29.014l-27.01 13.512c-26.936 13.476-27.006 13.519-26.242 16.25.421 1.506.733 10.388.693 19.738-.058 13.493-.523 19.102-2.256 27.189-5.862 27.35-18.72 51.87-37.727 71.939l-7.456 7.872.256 17.851.256 17.851 69.5-55.6 69.5-55.6h124l40.619 32.491 40.619 32.49 57.843.26 57.843.257 27.538 38.556 27.538 38.556.25-33.556.25-33.556zM170.74 544.765c42.262-9.223 74.247-40.368 86.295-84.027 1.74-6.306 2.09-10.538 2.153-26.03.066-16.415-.193-19.515-2.297-27.5-16.24-61.645-78.046-98.405-138.628-82.453-62.783 16.532-98.974 82.85-78.833 144.452 13.566 41.492 49.766 71.321 93.968 77.433 9.34 1.292 26.866.412 37.342-1.875zm-30.965-63.19c-4.188-.515-9.1-2.09-13.858-4.441-29.445-14.553-36.085-53.073-13.182-76.479 15.764-16.11 41.214-19.02 60.137-6.878 24.725 15.866 29.262 50.618 9.48 72.62-10.63 11.822-25.831 17.242-42.577 15.179zm13.317-32.232c10.925-4.564 13.407-19.124 4.615-27.067-6.403-5.785-14.542-5.998-21.147-.553-4.345 3.582-6.217 8.568-5.524 14.717.642 5.694 3.17 9.168 8.747 12.017 5.056 2.583 8.67 2.824 13.309.886zm715.697 97.312c72.003-8.946 117.549-79.408 95.307-147.448-16.453-50.334-66.318-83.034-118.316-77.59-47.9 5.015-86.755 38.559-99.145 85.59-2.104 7.986-2.363 11.086-2.297 27.5.062 15.493.412 19.725 2.153 26.031 5.314 19.255 14.152 35.832 26.182 49.104 24.629 27.172 61.144 41.157 96.116 36.813zm-19.088-65.038c-37.88-5.386-54.372-52.08-28.255-80.001 27.226-29.107 75.737-14.486 82.484 24.86 5.4 31.491-22.32 59.678-54.23 55.14zm14.042-33.16c5.577-2.85 8.105-6.323 8.747-12.017.693-6.149-1.179-11.136-5.524-14.717-6.605-5.445-14.744-5.232-21.147.553-6.776 6.121-7.318 15.4-1.317 22.533 5.114 6.077 11.95 7.373 19.24 3.648zm-265.205-79l-.275-16.25-15.75-.275-15.75-.276V321.706h32v-130h-194v130h129v30.986l-64.25.257-64.25.257-.275 16.25-.274 16.25h194.099zm-288.775-2.25l26.986-13.5h36.014v-130h-27.832l-78.664 34.495c-43.265 18.973-79.377 34.894-80.248 35.382-1.193.668-.144 1.305 4.257 2.584 16.477 4.79 37.75 16.848 52.649 29.841 13.767 12.007 26.65 29.24 34.338 45.933 2.2 4.777 4.34 8.703 4.757 8.725.417.022 12.9-6.035 27.743-13.46zm416.5 4.735c7.665-16.643 21.09-34.515 34.873-46.43 14.624-12.64 35.939-24.642 52.114-29.344 4.338-1.261 5.44-1.922 4.283-2.57-.857-.479-36.971-16.4-80.255-35.381l-78.697-34.51H630.763v130l18.25.054 18.25.054 26.5 13.392c14.575 7.366 26.95 13.399 27.5 13.406.55.008 2.8-3.894 5-8.67z"/></symbol><symbol viewBox="0 0 480 1000" id="icon-goal4" xmlns="http://www.w3.org/2000/svg"><path d="M229.842 1000.578c-4.73-1.183-9.298-4.162-12.39-8.08-1.52-1.925-29.88-49.175-63.022-105-33.143-55.825-60.387-101.664-60.542-101.865-.156-.2-15.33 5.987-33.719 13.75-29.163 12.311-34.122 14.112-38.802 14.093-16.538-.068-27.3-16.905-20.12-31.478 3.584-7.272 6.19-8.768 40.345-23.15l32.892-13.85.015-70c.009-43.103.395-71.37 1.005-73.565 1.394-5.018 7.192-11.395 12.174-13.389 11.746-4.7 24.445.017 29.445 10.937l2.379 5.197v60.727c0 57.389.096 60.696 1.75 60.152.962-.317 52.825-22.152 115.25-48.524l113.5-47.948.5-66.873.5-66.873 3.015-4.876c8.97-14.504 30.792-13.706 38.69 1.415l2.795 5.348v55.886c0 37.62.336 55.886 1.028 55.886.566 0 12.828-4.99 27.25-11.09 22.725-9.612 26.961-11.093 31.765-11.1 10.526-.018 18.654 5.9 21.487 15.644 1.761 6.06 1.294 10.868-1.621 16.67-3.529 7.022-1.708 6.11-68.66 34.42l-11.25 4.757V704c0 33.025-.337 47.17-1.184 49.6-1.503 4.314-140.191 237.586-143.131 240.746-4.73 5.085-14.511 7.941-21.344 6.233zm63.527-163.736l57.133-96.157v-31.593c0-17.377-.384-31.594-.854-31.594-2.064 0-213.625 90.005-213.446 90.807.606 2.704 98.695 166.185 99.304 165.506.402-.447 26.44-44.083 57.863-96.97zM14.21 582.937c-9.67-3.076-16.84-14.5-15.15-24.135.972-5.548 5.016-11.999 9.248-14.754 2.032-1.323 15.62-7.425 30.195-13.56 14.575-6.135 28.637-12.073 31.25-13.196l4.75-2.04V373.726l2.794-5.348c6.795-13.008 24.652-15.894 35.105-5.674 6.965 6.81 6.571 2.739 6.88 71.044.216 47.83.555 61.737 1.5 61.692.672-.031 52.52-21.753 115.22-48.27l114-48.214.5-63.48.5-63.478 2.5-4.455c1.376-2.451 4.452-5.826 6.837-7.5 3.99-2.802 5-3.045 12.664-3.045 7.628 0 8.692.252 12.664 3.006 2.84 1.97 5.285 4.878 7.086 8.43l2.75 5.423v52.927c0 41.938.26 52.826 1.25 52.437.687-.27 12.725-5.348 26.75-11.284 26.913-11.391 32.297-12.816 39.474-10.448 4.717 1.557 10.135 6.307 12.45 10.914 4.453 8.865 3.3 17.476-3.305 24.688-4.037 4.408-8.487 6.342-224.327 97.466-135.834 57.347-221.852 93.147-224.5 93.437-2.422.264-6.38-.196-9.085-1.057zm-.468-229.72C-1.737 347.349-6.062 327.7 5.739 316.86c4.272-3.923 4.93-4.227 53.263-24.635l15-6.333.5-134.447c.457-122.84.643-134.706 2.16-137.447 2.09-3.775 6.315-7.726 10.84-10.136 3.368-1.794 8.916-1.864 147.5-1.864h144l4.153 2.221c5.1 2.727 9.686 8.13 11.205 13.201.804 2.683 1.142 22.782 1.142 67.944 0 35.274.332 64.134.738 64.134.406 0 12.668-5.045 27.25-11.212 23.811-10.07 27.131-11.217 32.59-11.25 16.246-.1 26.748 16.954 19.544 31.74-1.28 2.627-3.743 5.855-5.474 7.172-1.732 1.318-101.923 44.13-222.648 95.136C12.74 360.272 22.356 356.483 13.74 353.217zm222.145-135.65l114.616-48.433V46.498h-231v110.083c0 63.358.375 109.942.884 109.75.486-.183 52.461-22.127 115.5-48.765z"/></symbol><symbol viewBox="0 0 618.385 962.74" id="icon-goal5" xmlns="http://www.w3.org/2000/svg"><path d="M277.691 961.47c-20.073-3.242-48.552-11.855-58.03-17.55-23.561-14.157-43.99-42.869-60.779-85.422-8.616-21.837-19.739-60.328-18.423-63.755.512-1.335 34.493-8.325 36.774-7.564.613.204 2.852 7.11 4.976 15.345 13.105 50.815 34.21 91.527 54.787 105.684 4.999 3.44 27.104 10.713 40.912 13.462 12.533 2.495 40.65 2.499 52.283.01 32.832-7.032 63.263-26.038 83.381-52.076 8.38-10.847 9.983-13.712 12.919-23.104 4.587-14.673 6.009-26.728 5.405-45.83-.59-18.697-1.88-26.258-7.213-42.321-6.373-19.193-14.918-33.76-27.328-46.587-9.042-9.344-17.32-14.914-27.126-18.249-19.437-6.61-45.792-25.286-62.25-44.111-8.994-10.289-18.66-24.762-24.012-35.958l-4.276-8.944-.287-34.75-.287-34.75h-99.926v-99h-60c-33 0-60-.188-60-.418 0-.23-13.308-48.718-29.574-107.75C13.352 268.799.024 219.6 0 218.5c-.024-1.1 13.284-50.44 29.574-109.645S59.19.938 59.19.605c0-.333 112.42-.605 249.82-.605h249.822l29.793 106.25c16.387 58.438 29.779 107.15 29.76 108.25-.02 1.1-13.346 51.2-29.615 111.334-16.27 60.133-29.58 109.521-29.58 109.75 0 .229-27 .416-60 .416h-60v99h-120v30.533c0 34.875-.531 32.38 10.105 47.457 13.564 19.226 35.568 36.532 55.87 43.942 15.683 5.723 28.103 14.134 41.195 27.894 34.938 36.724 52.222 96.387 43.359 149.674-3.516 21.138-9.082 36.634-17.863 49.73-25.337 37.79-67.39 65.96-113.166 75.806-13.219 2.843-47.315 3.646-61 1.436zm121.5-485.472v-20h-180v40h180zm-168.702-92.25c11.135-32.99 92.198-274.053 103.235-307l12.31-36.75H247.63l-59.736 177.75c-32.854 97.763-59.728 178.088-59.72 178.5.01.412 22.028.75 48.93.75h48.912zm140 0c11.135-32.99 92.198-274.053 103.235-307l12.31-36.75H387.63l-59.736 177.75c-32.854 97.763-59.728 178.088-59.72 178.5.01.412 22.028.75 48.93.75h48.912zm158.149 12.336c.31-.503 11.554-41.588 24.984-91.301l24.42-90.387-24.321-86.762c-13.377-47.718-24.593-87.033-24.926-87.365-.332-.332-.776-.417-.985-.188-.548.598-119.619 355.027-119.619 356.058 0 1.17 119.723 1.116 120.447-.055zM147.455 214.498l58.462-174-58.021-.258c-31.912-.142-58.185-.095-58.385.104-.199.2-11.343 40.288-24.765 89.086l-24.403 88.723 23.62 85.927c12.99 47.26 23.937 85.587 24.325 85.172.388-.415 27.013-79.054 59.167-174.754z"/></symbol><symbol viewBox="0 0 546.133 546.133" id="icon-goal6" xmlns="http://www.w3.org/2000/svg"><path d="M4.017 520.36l-3.484-3.11-.339-24.89c-.512-37.58-1.328-36.453 26.74-36.976l18.933-.353v-30.076c0-26.08.23-30.406 1.74-32.56 3.183-4.546 7.52-5.458 25.959-5.458h17.1V66.08l-3.14-1.095c-8.42-2.935-17.624-15.862-18.887-26.527-1.276-10.777 4.35-24.224 12.847-30.705 13.257-10.112 32.846-8.99 44.363 2.538 6.418 6.424 9.46 12.947 10.43 22.356l.788 7.654 47.466 25.644L232 91.587l61.333-.06c47.12-.045 61.928.25 63.897 1.276 5.689 2.96 6.2 4.885 10.687 40.169 2.342 18.426 4.666 33.909 5.164 34.406 1.213 1.213 69.68 38.226 70.71 38.226.445 0 5.164-7.135 10.486-15.856 13.463-22.06 18.794-26.7 33.591-29.234 6.034-1.033 7.59-.905 13.835 1.145 8.217 2.698 28.235 14.61 34.082 20.282 8.132 7.888 11.954 21.058 9.309 32.083-1.873 7.808-51.6 89.607-58.228 95.782-6.91 6.438-14.903 9.193-25 8.616-4.677-.268-9.55-1.24-11.733-2.343-10.02-5.059-26.3-15.466-30.15-19.275-8.584-8.489-12.164-21.594-8.935-32.702.94-3.232 6.093-13.18 11.453-22.109 5.359-8.928 9.569-16.37 9.355-16.537-1.368-1.07-54.564-29.452-55.2-29.452-.552 0 30.948 256.503 31.794 258.902.046.129 29.243.369 64.883.533 60.338.278 64.995.43 67.626 2.217 4.94 3.355 5.31 5.86 4.963 33.724l-.322 25.87-3.484 3.11-3.483 3.11H7.5zm519.716-30.49v-11.2H22.4v22.4H523.733zm-387.2-57.066v-22.4H68.267v44.8h68.266zm46.944 22.133c.005-.147 9.585-76.807 21.287-170.357 11.703-93.55 21.17-170.198 21.038-170.33-.131-.131-22.748-12.424-50.258-27.316l-50.019-27.078-5.656 3.274-5.656 3.274-.04 160.267-.04 160.266h17.101c18.44 0 22.776.912 25.96 5.458 1.508 2.154 1.74 6.487 1.74 32.646v30.163H171.2c6.747 0 12.271-.12 12.277-.267zm201.171-4.8c-.39-2.787-.993-7.728-1.34-10.98l-.633-5.913-42.667-27.154c-23.467-14.934-43.078-27.31-43.58-27.5-.501-.191-20.31 11.98-44.018 27.048-48.593 30.88-43.4 25.997-45.047 42.366l-.724 7.2h178.718zm-140.078-66.4c16.208-10.266 29.47-18.906 29.469-19.2 0-.753-51.398-33.13-51.86-32.667-.428.428-8.822 66.251-8.837 69.29-.005 1.075.389 1.795.875 1.6.486-.196 14.145-8.756 30.353-19.023zm134.097 18.573c0-1.844-8.813-70.362-9.088-70.658-.418-.45-51.711 32.172-51.708 32.885.003.64 58.848 38.24 59.996 38.334.44.036.8-.216.8-.56zm-48.318-73.118c18.655-11.814 34.467-22.014 35.138-22.667 1.69-1.645-3.94-44.94-6.107-46.97-.832-.779-15.483-10.285-32.558-21.125l-31.044-19.709-32.422 20.632-32.423 20.631-2.982 23.194c-1.64 12.756-2.6 23.338-2.133 23.515.467.176 16.209 10.126 34.982 22.11s34.47 21.806 34.882 21.828c.412.022 16.012-9.626 34.667-21.44zm138.362-34.142c3.443-1.568 3.72-1.988 30.935-46.78 19.857-32.683 23.007-38.454 23.013-42.162.004-2.363-.722-5.338-1.615-6.612-.892-1.274-6.95-5.526-13.461-9.45-13.503-8.135-18.137-9.074-22.866-4.631-1.464 1.376-13.76 20.724-27.322 42.995-26.512 43.534-26.974 44.582-22.385 50.775 1.095 1.477 5.613 4.937 10.04 7.688 15.853 9.85 18.205 10.663 23.661 8.177zm-214.661-76.7c10.166-6.484 18.86-12.165 19.322-12.626.46-.46-6.06-5.22-14.49-10.578-17.09-10.86-18.88-11.775-18.886-9.656-.002.796-1.2 10.807-2.663 22.247-2.896 22.664-2.87 22.4-2.217 22.4.248 0 8.768-5.304 18.934-11.788zm102.96 9.387c-.305-1.32-1.656-11.64-3.001-22.933-1.346-11.293-2.82-20.533-3.276-20.533-.456 0-8.07 4.622-16.921 10.273-11.573 7.388-15.767 10.598-14.934 11.43 1.701 1.703 36.696 24.033 37.771 24.103.504.033.666-1.02.361-2.34zm-43.548-47.191c8.292-5.276 14.954-9.962 14.803-10.413-.235-.705-79.917-44.33-80.465-44.053-.215.109-3.412 24.881-3.819 29.598-.23 2.66 1.684 4.103 25.769 19.436 15.558 9.904 26.542 16.252 27.325 15.792.72-.423 8.094-5.085 16.387-10.36zm33.87-30.142c-.314-1.613-1.328-9.413-2.255-17.333-.926-7.92-1.917-15.48-2.2-16.8l-.518-2.4h-33.793c-20.657 0-33.399.382-32.78.984 1.356 1.316 70.102 38.436 71.232 38.462.487.011.628-1.3.314-2.913zM109.95 42.486c5.924-5.925 3.835-15.69-3.903-18.244-11.309-3.733-19.622 9.816-11.195 18.244 2.446 2.445 4.074 3.118 7.549 3.118 3.475 0 5.103-.673 7.549-3.118z"/></symbol><symbol viewBox="0 0 999.716 839.346" id="icon-goal7" xmlns="http://www.w3.org/2000/svg"><path d="M142.962 838.413c-20.742-2.684-42.652-14.921-55.797-31.164-26.659-32.94-26.334-79.125.784-111.711l4.952-5.95V329.5h-52l-.006 23.25c-.003 13.304-.46 24.884-1.066 27.07-2.728 9.823-13.848 16.098-24.148 13.627-7.266-1.743-13.162-7.768-14.748-15.07-.844-3.887-1.08-24.078-.85-72.877.353-75.01-.081-70.37 7.18-76.746 10.182-8.94 25.034-6.126 31.015 5.875 2.614 5.246 2.623 5.344 2.623 29.567V288.5h51.961l.27-97.414.269-97.414 3.041-4.328c1.673-2.38 4.823-5.343 7-6.585l3.959-2.257 48.158.249 48.158.249 3.842 3.058c2.113 1.682 4.854 5.04 6.092 7.462l2.25 4.404V288.5h51.809l.445-18.25.445-18.25 36.692-120c23.74-77.636 37.561-121.317 39.152-123.73 1.352-2.052 4.37-4.752 6.708-6L355.4 0h138.5c76.175 0 139.749.349 141.275.775 3.916 1.095 10.092 6.968 12.028 11.44.902 2.082 17.852 57.14 37.668 122.35l36.029 118.566v35.402l26.25-.266L773.4 288l.5-97.573.5-97.574 2.684-4.055c1.616-2.443 4.426-4.9 7.065-6.177 4.272-2.068 5.546-2.121 50.599-2.121 36.873 0 46.866.277 49.434 1.368 1.77.753 27.068 20.104 56.218 43.003 41.173 32.343 53.67 42.676 56 46.303l3 4.669.262 154.425c.173 101.692-.083 155.707-.748 158.178-1.52 5.644-5.08 10.267-10.053 13.054l-4.461 2.5-43.735.29-43.735.29-.265 159.71L896.4 824l-2.5 4.461c-2.803 5.001-7.414 8.535-13.154 10.08-2.467.665-19.757.934-48.099.748L788.401 839l-4.46-2.5c-2.723-1.527-5.545-4.258-7.25-7.017l-2.79-4.517V329.5h-53v17.532c0 12.521-.39 18.463-1.36 20.788-1.843 4.41-83.149 130.433-86.489 134.056-1.458 1.582-4.451 3.71-6.651 4.728-3.827 1.772-9.514 1.853-130.884 1.874-92.642.016-127.918-.288-130.715-1.126-2.107-.631-5.178-2.318-6.824-3.75-4.184-3.636-87.085-132.57-88.738-138.01-.877-2.89-1.34-9.874-1.34-20.25V329.5h-52V690.151l2.609 2.425c7.862 7.307 16.963 23.99 20.416 37.424 11.353 44.163-13.541 90.143-56.524 104.402-13.662 4.532-25.842 5.77-39.44 4.011zm21.827-40.974c7.493-1.727 15.022-5.923 21.498-11.982 10.877-10.174 15.19-21.173 14.378-36.676-.43-8.23-.93-10.233-4.213-16.875-4.862-9.838-12.119-17.095-21.957-21.957-6.642-3.283-8.645-3.783-16.875-4.213-9.969-.522-17.145.9-25.144 4.981-5.601 2.857-15.093 12.197-18.567 18.27-14.923 26.082-.543 59.849 28.992 68.08 5.547 1.546 16.025 1.724 21.888.372zM855.901 459.5v-339h-42v678h42zM154.401 665c4.95 0 11.813.382 15.252.848l6.252.849-.252-272.849L175.4 121l-20.75-.27-20.75-.27v546.184l5.75-.822c3.163-.452 9.8-.822 14.75-.822zM635.25 424.628c15.209-23.58 27.652-43.154 27.652-43.5 0-.345-75.6-.628-168-.628-98.678 0-168 .37-168 .898 0 .495 10.857 17.707 24.126 38.25 13.27 20.544 25.639 39.714 27.488 42.602l3.361 5.25h225.72zm323.616-97.378L958.83 191l-16.214-12.655a11982.95 11982.95 0 0 1-30.964-24.26l-14.75-11.607V463.5h62l-.036-136.25zm-278.2-18.5l.265-31.25H308.9v30.833c0 16.959.301 31.135.67 31.503.367.368 83.955.556 185.75.417L680.4 340zm-8.237-75c-.379-1.512-12.604-41.9-27.166-89.75-14.562-47.85-27.604-90.714-28.98-95.254l-2.504-8.254-119.094.254L375.59 41l-7.807 25.5c-4.294 14.025-7.824 25.837-7.845 26.25-.02.412 20.55.753 45.713.756 28.84.004 47.146.393 49.527 1.054 4.328 1.202 10.165 5.96 12.246 9.983 3.898 7.54 2.557 16.815-3.342 23.11-6.408 6.84-5.595 6.754-64.43 6.803-29.013.024-52.75.225-52.75.447 0 .441-28.493 94.382-29.98 98.847l-.917 2.75h357.113zM537.401 132.997c-5.256-1.859-11.063-8.16-12.526-13.592-2.099-7.796.222-15.236 6.462-20.714 5.411-4.752 9.415-5.37 32.435-5.012 20.411.318 20.678.35 25.282 3.057 5.562 3.269 9.86 10.798 9.825 17.21-.045 8.362-6.781 17.295-14.7 19.494-5.85 1.624-41.898 1.283-46.778-.443z"/></symbol><symbol viewBox="0 0 940 999.543" id="icon-goal8" xmlns="http://www.w3.org/2000/svg"><path d="M476.263 998.486c-10.153-1.181-25.078-6.378-34.387-11.973-20.15-12.111-33.28-29.105-40.562-52.504l-2.777-8.922-.313-69.75-.313-69.75H434v-72H253v214H145v-214H0v-178h145v-72H0v-178h145v-72h-36v-66.912c0-71.087.155-73.823 4.944-87.522C127.37 20.755 167.753-4.206 208.695.588c37.514 4.392 67.471 30.086 77.536 66.5 2.167 7.84 2.218 9.384 2.535 77.25l.323 69.25H253v72h181v-214h108v213.951l55.75.293 55.75.294 143.228 52.98 143.228 52.981.022 35.75.022 35.75H542v72h398V606.37l-28.25 10.487c-15.538 5.767-80.675 29.895-144.75 53.617l-116.5 43.133-54.25-.01-54.25-.01v72h36.088l-.313 70.25-.312 70.25-2.629 8.412c-11.515 36.856-41.386 60.897-79.893 64.298-5.742.507-10.666.834-10.941.726-.275-.108-3.757-.575-7.737-1.038zM503 961.932c19.826-5.487 36.188-23.89 38.98-43.845.54-3.85.99-27.366 1-52.258l.02-45.259-54.75.259-54.75.258v48.5c.001 44.234.163 49.028 1.84 54.5 6.506 21.24 23.438 36.233 44.567 39.468 6.81 1.043 15.725.416 23.093-1.623zM217 803.065v-89.523l-18.25.273-18.25.272-.255 89.25-.256 89.25H217zm289.5-53.478v-35.5l-18.25-.272-18.25-.273V785.633l18.25-.273 18.25-.273zm267.25-119.13L904 582.264v-11.676H36v108l303.75.033 303.75.033 130.25-48.195zM217 499.566v-36.023l-18.25.273-18.25.272-.263 34.494c-.145 18.972-.047 35.06.218 35.75.362.944 4.964 1.256 18.514 1.256H217zm217 .023v-36H253v72h181zm72.5 0v-35.5l-18.25-.273-18.25-.273V535.633l18.25-.273 18.25-.273zm397.298-77.182l-.298-6.18L774 368.45l-129.5-47.776-304.25-.043L36 320.587v108h868.095zM217 249.565v-36.023l-18.25.273-18.25.272-.263 34.494c-.145 18.972-.047 35.06.218 35.75.362.944 4.964 1.256 18.514 1.256H217zm289.5-53.478v-89l-18.25-.272-18.25-.273v179.091l18.25-.273 18.25-.273zM253 129.862c0-40.25-.263-49.754-1.514-54.637-4.586-17.9-19.375-32.777-37.986-38.212-8.435-2.464-22.073-2.275-30.5.422-17.222 5.51-29.655 17.476-35.902 34.55l-2.598 7.102-.31 49.75-.309 49.75H253z"/></symbol><symbol viewBox="0 0 999.946 999.467" id="icon-goal9" xmlns="http://www.w3.org/2000/svg"><path d="M129 966.945v-32.5H0v-31h129v-114H0v-32h129v-64h32v64h33v-64h31v64h82V695.584l-11.25-3.63c-55.854-18.018-105.868-49.009-146.282-90.644-54.363-56.004-87.312-124.033-98.013-202.365-2.228-16.305-3.039-55.703-1.518-73.74C62.737 173.379 170.352 47.093 318.5 10.049c47.292-11.825 102.612-13.287 151-3.992 134.673 25.87 242.844 127.364 276.985 259.889 11.613 45.076 14.232 93.811 7.501 139.563-1.087 7.39-1.979 13.55-1.981 13.687 0 .137 46.457.26 103.245.274 65.978.016 104.834.39 107.638 1.036 12.865 2.966 25.84 13.371 31.592 25.334 1.879 3.908 3.865 9.806 4.413 13.106.642 3.866 1.01 92.94 1.034 250.5.042 268.97.438 251.892-6.129 264.241-6.75 12.695-20.561 22.51-34.798 24.73-9.145 1.426-361.18 1.39-369.98-.038-18.272-2.964-34.874-18.325-38.96-36.045-.556-2.414-1.022-9.677-1.036-16.141L549 934.438l-161.75.253-161.75.253-.264 32.25-.264 32.25H194v-65h-33v65h-32zm832.187-2.694c7.454-5.686 6.813 18.312 6.813-254.892V464.076l-2.07-4.278c-1.217-2.511-3.591-5.223-5.75-6.566l-3.68-2.287-180.5-.275c-163.285-.248-180.903-.122-184.722 1.322-4.96 1.876-8.8 6.07-10.295 11.248-.752 2.6-.983 76.609-.777 248.278l.294 244.573 2.5 3.683c1.375 2.025 4.3 4.581 6.5 5.68 3.96 1.978 5.806 1.995 186.078 1.744l182.078-.253zM613 838.445v-64h129v128H613zm97-.5v-32.5h-65v65h65zm97 .5v-64h128v128H807zm96.764-.25l-.264-32.25h-65l-.264 32.25-.264 32.25h66.056zM613 595.945v-112.5h322v225H613zm290.756.25l.256-80.75H645v162.007l129.25-.254 129.25-.253zM678 628.445v-16h128v32H678zm161 0v-16h32v32h-32zm-645.242 217.75l.259-56.75H161v56.333c0 30.983.311 56.644.691 57.024.38.38 7.693.568 16.25.417l15.559-.274zm355 0l.259-56.75H468v-86.279l-4.75.61c-2.612.334-9.7 1.333-15.75 2.218-17.327 2.536-58.341 3.069-78 1.013-8.8-.92-19.27-2.24-23.268-2.933-3.998-.693-7.485-1.043-7.75-.778-.265.265-.482 19.753-.482 43.307v42.825l-56.25.258-56.25.259-.26 55.5c-.143 30.525-.044 56.064.22 56.753.382.998 33.263 1.201 161.76 1l161.28-.253zm.242-128.25c0-25.127-.357-39.5-.98-39.5-.539 0-5.601 1.866-11.25 4.147-5.648 2.28-16.12 6.055-23.27 8.387l-13 4.24-.264 31.113-.264 31.113H549zm-108.466-43.021c33.479-3.91 68.063-13.765 99.73-28.42l8.764-4.056-.264-31.252-.264-31.251-16.25-.275-16.25-.275v-30.9l16.25-.276 16.25-.274.275-16.25.275-16.25H242v-32h307v-11.819c0-7.955.527-13.594 1.612-17.25 4.583-15.448 14.273-26.091 29.283-32.164 5.585-2.259 5.848-2.27 72.564-2.767l66.96-.5 1.23-6c3.754-18.315 4.79-31.133 4.767-59-.023-29.02-1.053-40.795-5.422-62.029-16.383-79.623-59.374-147.832-123.563-196.044-80.855-60.73-186.496-79.889-283.718-51.453-52.065 15.229-98.924 43.128-137.718 81.995-80.844 81-112.68 196.835-84.53 307.56 11.95 46.997 35.514 92.488 67.05 129.436 7.89 9.245 29.33 30.527 38.985 38.698 30.65 25.939 73.217 49.053 112 60.82 42.852 13 88.177 17.118 132.034 11.996zM242 563.944v-15.5h242v31H242zm-101.303-85.75c-.284-.687-2.991-7.169-6.016-14.404l-5.498-13.155 29.444-12.226c16.194-6.725 29.572-12.055 29.728-11.845 1.68 2.26 11.566 28.348 10.959 28.92-.784.739-56.62 23.96-57.613 23.96-.268 0-.72-.562-1.004-1.25zm248.528-61.271c-8.13-1.766-19.222-7.194-26.505-12.97-18.132-14.382-27.084-39.765-22.22-63.008 4.884-23.346 24.476-43.533 47.5-48.943 13.512-3.175 30.813-1.37 42 4.384l5.5 2.829 42.75-42.63 42.749-42.63 11.245 11.245 11.246 11.246-42.612 42.75-42.611 42.749 2.786 5.415c4.023 7.818 5.947 16.652 5.947 27.31 0 17.827-5.911 31.85-18.915 44.87-15.478 15.496-37.542 22.013-58.86 17.383zm27.97-33.301c15.628-7.664 22.762-26.89 15.669-42.223-3.646-7.88-8.047-12.427-15.652-16.17-5.733-2.823-7.624-3.253-14.164-3.222-5.498.027-8.829.615-12.265 2.166-7.023 3.171-14.061 10.272-17.272 17.426-2.452 5.465-2.7 6.993-2.302 14.234.777 14.14 8.317 24.327 21.673 29.28 5.677 2.105 18.596 1.312 24.313-1.491zM113 354.445v-16h64v32h-64zm516 0v-16h64v32h-64zm-470.624-84.417l-29.123-12.12 6.011-14.625 6.012-14.625 15.612 6.46c8.587 3.553 21.687 8.955 29.112 12.004 7.425 3.05 13.668 5.7 13.874 5.89.464.43-10.964 28.39-11.78 28.822-.327.173-13.7-5.14-29.718-11.806zm453.861-1.9c-3.29-7.8-5.702-14.498-5.36-14.883.343-.385 13.575-6.073 29.405-12.641l28.782-11.941 1.538 3.64c6.291 14.897 10.471 25.4 10.208 25.656-.261.254-49.98 20.96-56.45 23.51-1.989.783-2.564-.162-8.123-13.34zM209 182.943l-22.485-22.501 11.244-11.245 11.245-11.244 22.738 22.739 22.74 22.738-10.974 11.008c-6.035 6.054-11.21 11.007-11.498 11.007-.29 0-10.644-10.126-23.01-22.502zm354.245 11.247l-11.237-11.27 22.498-22.48 22.498-22.481 11.244 11.244 11.245 11.245-22.506 22.505-22.505 22.505zM301.1 149.215c-.477-1.249-5.892-14.375-12.034-29.169s-10.807-27.256-10.366-27.694c1.619-1.606 27.719-11.886 28.333-11.159 1.77 2.096 23.956 57.652 23.27 58.27-.441.397-5.302 2.55-10.802 4.786-5.5 2.236-11.695 4.78-13.767 5.651-3.677 1.548-3.788 1.532-4.634-.685zm188.401-3.814c-8.907-3.742-13.882-6.35-13.676-7.169.344-1.364 23.23-57.104 23.628-57.547.447-.496 28.271 11.265 28.562 12.073.352.978-23.297 58.671-24.014 58.584-.275-.033-6.8-2.707-14.5-5.941zM387 96.445v-32h32v64h-32z"/></symbol><symbol viewBox="0 0 198.718 123.954" id="icon-horizontal-arrow" xmlns="http://www.w3.org/2000/svg"><path d="M13.673 109.836L0 95.717l49.387-47.752C76.55 21.702 98.936.117 99.133 0c.198-.117 22.685 21.385 49.972 47.781l49.613 47.994-13.489 13.704c-7.419 7.537-13.723 13.763-14.01 13.833-.286.071-16.298-15.093-35.582-33.697-19.283-18.605-35.634-33.827-36.335-33.827-.701 0-12.45 10.8-26.11 24S43.627 108.325 37.85 113.87l-10.505 10.083z"/></symbol><symbol viewBox="0 0 14017 3671" shape-rendering="geometricPrecision" text-rendering="geometricPrecision" image-rendering="optimizeQuality" fill-rule="evenodd" clip-rule="evenodd" id="icon-logo" xmlns="http://www.w3.org/2000/svg"><defs><style>.icon-logo{fill:#2c3575}</style></defs><path class="icon-logo" d="M4438 207V36l-113 102v331h113V309h142v160h113V47h-113v160h-142zm604-160l-313 283v149l313-282v112h-89l-114 103h203v57h112V47h-112zm177 432l484-432h-168l-113 101-121-111-80 71 117 115-119 109v147zm781-10V47h-112v193h-53c-24 0-40-4-48-12-7-8-11-24-11-47V38l-113 102v41c0 55 10 95 30 119 22 28 61 41 115 41h80v128h112zm176-262V36l-112 102v331h112V309h143v160h112V47h-112v160h-143zm514-166c-59 0-107 19-144 56-39 40-59 93-59 161 0 67 20 121 59 160 37 38 85 57 144 57s107-19 145-57c39-40 59-93 59-160 0-68-19-121-58-161-38-37-86-56-146-56zm91 217c0 34-6 61-20 81-16 23-39 34-71 34-31 0-54-11-70-34-13-20-20-47-20-81s7-61 20-81c15-23 39-34 70-34s54 11 70 34c14 21 21 48 21 81zm167-49h284v100h-284V209zm433-61v321h113V148h23l113-101h-255l-112 101h118zm227 321V148l113-101h290l-112 101h-178v59h178v102h-178v59h178v101h-291zm581-171l202 181V333l-120-109 198-177h-168l-113 101-122-111-79 71 117 115-119 109v150l204-184zm385-91V36l-112 102v331h112V309h143v160h113V47h-113v160h-143zm317-67v337l291-263v255h113V47h-97l-194 177V38l-113 102zm799 329V47h-112v193h-53c-24 0-40-4-48-12-7-8-11-24-11-47V38l-113 102v41c0 55 10 95 30 119 22 28 61 41 115 41h80v128h112zm65 0V148l112-101h290l-112 101h-178v59h178v102h-178v59h178v101h-290zm651 0h-32c-67 0-123-20-169-61-45-40-68-90-68-150s23-110 68-150c46-41 102-61 169-61h144l-112 101h-24c-37 0-69 11-94 32-26 21-39 47-39 78s13 57 39 78 57 32 94 32h24v101zm213-249V37l-112 102v330h112V368l51-46 176 157V333l-93-85 210-201h-154l-190 173zm322-80v337l291-263v255h113V47h-97l-195 177V38l-112 102zm467 0v337l291-263v255h112V47h-96l-195 177V38l-112 102zm137-93h125l-125 112V47zm816 0v321h-142V47l-112 101v321h414V368h-47V47h-113zm200 422V148l113-101h290l-113 101h-177v59h177v102h-177v59h177v101h-290zm504-262V36l-113 102v331h113V309h143v160h112V47h-112v160h-143zm404-59v321h112V148h24l112-101h-254l-112 101h118zm548 59c0-49-18-90-54-120-31-27-67-40-106-40h-51l-112 101v321h112V148h51c15 0 29 6 41 17 11 11 17 25 17 42 0 18-5 32-17 43-12 10-25 16-41 16h-24v102h24c39 0 74-14 105-40 37-31 55-71 55-121zM4604 1007l-279 252v796h279v-796h356v796h279V1007h-635zm1575 398c0-123-45-222-135-299-78-66-165-99-262-99h-126l-279 252v796h279v-796h124c39 0 73 14 102 41 30 28 44 63 44 105 0 44-14 79-43 106s-63 40-103 40h-59v252h59c98 0 185-32 263-98 90-76 136-176 136-300zm130-167v836l723-651v632h279V1007h-240l-483 439V986l-279 252zm1739 167h-244v252h244c21 0 38 7 51 20 12 13 18 31 18 53 0 20-6 38-18 52-13 14-30 21-51 21h-244v252h296c83 0 153-30 211-89 57-60 85-139 85-236 0-46-11-87-34-124-24-38-53-62-88-72 37-20 67-47 89-81 22-35 33-75 33-122 0-96-28-174-84-234s-127-90-212-90h-358l-280 252v796h280v-796h306c21 0 38 7 51 20 12 13 18 31 18 52s-6 39-18 53c-13 14-30 21-51 21zm989-412c-146 0-265 46-357 140-98 98-146 231-146 398s48 300 146 398c92 94 211 141 357 141s266-47 358-141c99-99 148-232 148-398 0-168-48-301-145-398-92-94-213-140-361-140zm227 538c0 85-17 152-51 201-39 57-98 85-176 85-77 0-134-28-173-85-34-50-51-117-51-201 0-85 17-152 50-201 38-57 96-85 174-85 76 0 135 29 174 86 35 51 53 118 53 200zm1247-524l-814 735h408l406-362v423h-876v252h1155V1007h-279zm725 398V981l-279 253v821h279v-398h355v398h279V1007h-279v398h-355zm1500-398l-777 703v370l777-700v277h-220l-283 257h503v141h279V1007h-279zm1272 1048h-279v-796h-125c-57 0-97 13-119 40-18 22-27 57-27 106 0 43 15 77 43 104 29 27 64 41 103 41h109l-551 522v-368l143-125c-36-31-63-60-82-88-29-42-44-87-44-134 0-114 36-200 108-260 73-60 178-90 316-90h405v1048zM4618 2835v797h280v-797h58l279-252h-631l-279 252h293zm564 797v-797l280-252h719l-279 252h-440v146h440v252h-440v146h440v253h-720zm1440-425l503 450v-363l-299-272 491-439h-417l-281 252-300-276-197 177 289 285-295 269v373l506-456zm957-226v-423l-279 252v822h279v-399h354v399h279V2583h-279v398h-354zm786-167v836l723-650v632h279V2583h-239l-484 439v-460l-279 252zm1440 198v-452l-279 253v819h279v-251l126-115 435 390v-363l-231-211 523-499h-383l-470 429zm1511-429l-777 703v370l777-700v277h-220l-283 257h503v142h279V2583h-279zM0 0h1643v1643H0zM2019 1h1643v1642H2019zM0 2028h1643v1643H0zM2019 2028h1643v1643H2019z"/></symbol><symbol viewBox="0 0 14 14" id="icon-user" xmlns="http://www.w3.org/2000/svg"><defs><style>.cls-user-1{fill:#185596;fill-rule:evenodd}</style></defs><path class="cls-user-1" d="M7 1.662a1.837 1.837 0 1 1-1.84 1.837A1.8 1.8 0 0 1 7 1.662m0 7.875c2.62 0 5.34 1.313 5.34 1.838v.962H1.66v-.962c0-.525 2.71-1.838 5.34-1.838M7 0a3.5 3.5 0 1 0 3.5 3.5A3.507 3.507 0 0 0 7 0zm0 7.875c-2.36 0-7 1.137-7 3.5V14h14v-2.625c0-2.363-4.64-3.5-7-3.5z"/></symbol></svg>